Coordinates
version=1
nRows=10
nColumns=38
inDegrees=yes

Units are S.I. units (second, meters, Newtons, ...)
Angles are in degrees.

endheader
time	pelvis_tilt	pelvis_list	pelvis_rotation	pelvis_tx	pelvis_ty	pelvis_tz	hip_flexion_r	hip_adduction_r	hip_rotation_r	knee_angle_r	ankle_angle_r	subtalar_angle_r	mtp_angle_r	hip_flexion_l	hip_adduction_l	hip_rotation_l	knee_angle_l	ankle_angle_l	subtalar_angle_l	mtp_angle_l	lumbar_extension	lumbar_bending	lumbar_rotation	arm_flex_r	arm_add_r	arm_rot_r	elbow_flex_r	pro_sup_r	wrist_flex_r	wrist_dev_r	arm_flex_l	arm_add_l	arm_rot_l	elbow_flex_l	pro_sup_l	wrist_flex_l	wrist_dev_l
      8.07000000	     -3.40859456	      7.85107346	      6.28818043	     -0.26970846	      0.82697618	      2.57504733	      2.19384261	    -10.46827804	     -8.93723262	    -82.72060020	    -10.67956962	      0.00000000	      0.00000000	     30.20667817	     13.17841313	      4.42036768	    -37.04584333	      2.31108953	      0.00000000	      0.00000000	     -7.41608433	     -9.84163735	      3.71744439	      6.50124130	    -14.08971727	     31.36428644	    116.96149100	     97.90065109	      0.00000000	      0.00000000	    -18.54529053	    -21.49400571	      2.28005468	    112.61963785	     93.70996636	      0.00000000	      0.00000000
      8.08000000	     -3.25379720	      9.19955432	      6.97477974	     -0.27390933	      0.81883455	      2.57313398	      5.16374701	    -12.58957705	     -9.06318546	    -87.45487402	     -8.60110025	      0.00000000	      0.00000000	     30.67564840	     15.35847686	      4.70666500	    -41.64623475	      5.82717226	      0.00000000	      0.00000000	     -8.65840727	    -11.41746097	      1.65178178	      4.97320001	    -14.34512483	     30.34358823	    115.30124393	     97.46702060	      0.00000000	      0.00000000	    -15.33247012	    -22.77677939	      3.75444296	    112.29760406	     93.55321966	      0.00000000	      0.00000000
      8.09000000	     -3.49091561	     10.24688882	      7.47177354	     -0.27771863	      0.81284439	      2.57275864	      8.72392575	    -14.17907089	     -8.68191720	    -91.47232702	     -6.70664241	      0.00000000	      0.00000000	     30.40430586	     16.82622944	      4.75692350	    -44.34289025	      9.13959149	      0.00000000	      0.00000000	     -9.43262317	    -12.77648660	     -0.17336714	      3.09772999	    -14.51472070	     29.30690967	    113.65161258	     96.70321482	      0.00000000	      0.00000000	    -12.05785846	    -24.08888743	      5.28198860	    112.08437448	     93.71837096	      0.00000000	      0.00000000
      8.10000000	     -3.95979231	     10.89148083	      7.57685963	     -0.28104999	      0.80960129	      2.57344651	     12.74269156	    -15.00722735	     -7.70421740	    -94.62336132	     -5.04586680	      0.00000000	      0.00000000	     29.30917537	     17.40766661	      4.53812882	    -45.20685870	     11.94683634	      0.00000000	      0.00000000	     -9.77004574	    -13.76025466	     -1.60806522	      0.96019268	    -14.69739004	     28.30334179	    112.16284886	     95.66572915	      0.00000000	      0.00000000	     -8.85891210	    -25.25715132	      6.73533588	    111.99511015	     94.16896921	      0.00000000	      0.00000000
      8.11000000	     -4.38124784	     11.10584924	      7.12280443	     -0.28395434	      0.80865908	      2.57483408	     16.93679139	    -14.96929283	     -6.16825207	    -96.90235591	     -3.64196462	      0.00000000	      0.00000000	     27.46161508	     17.17221550	      4.15058541	    -44.74818071	     14.15109988	      0.00000000	      0.00000000	     -9.78103992	    -14.26882660	     -2.55628102	     -1.29973913	    -14.98773047	     27.33656873	    111.02565903	     94.43438160	      0.00000000	      0.00000000	     -5.85397159	    -26.12361892	      7.96472647	    112.07510050	     94.78690421	      0.00000000	      0.00000000
      8.12000000	     -4.56061054	     10.91130092	      6.09562592	     -0.28646101	      0.80932383	      2.57684919	     21.00065241	    -14.09249173	     -4.27959027	    -98.35807189	     -2.49074986	      0.00000000	      0.00000000	     25.02814600	     16.36812181	      3.75316210	    -43.56096439	     15.78311331	      0.00000000	      0.00000000	     -9.58406762	    -14.28976393	     -3.01940250	     -3.56812261	    -15.44171859	     26.38812573	    110.39401179	     93.09305754	      0.00000000	      0.00000000	     -3.13736603	    -26.60552061	      8.84566746	    112.38486288	     95.39913247	      0.00000000	      0.00000000
      8.13000000	     -4.51339554	     10.37134406	      4.65851254	     -0.28846244	      0.81137534	      2.57930037	     24.73785047	    -12.52207305	     -2.35399299	    -99.00409448	     -1.56627729	      0.00000000	      0.00000000	     22.20473770	     15.25505767	      3.46949673	    -42.02410676	     16.89408980	      0.00000000	      0.00000000	     -9.25953380	    -13.88764294	     -3.11892040	     -5.80407745	    -16.06570371	     25.43377359	    110.30592607	     91.71319123	      0.00000000	      0.00000000	     -0.78172764	    -26.71412411	      9.32871668	    112.96956952	     95.82379190	      0.00000000	      0.00000000
      8.14000000	     -4.41594071	      9.56987756	      3.07924409	     -0.28995175	      0.81492204	      2.58195769	     28.09889868	    -10.48665090	     -0.69478418	    -98.80208668	     -0.83229777	      0.00000000	      0.00000000	     19.15939344	     13.97235209	      3.33625068	    -40.21404737	     17.46990490	      0.00000000	      0.00000000	     -8.83224239	    -13.16437097	     -3.06286036	     -8.02769012	    -16.81931614	     24.44915193	    110.66594333	     90.34506827	      0.00000000	      0.00000000	      1.16149270	    -26.53394019	      9.45417871	    113.83671311	     95.91973258	      0.00000000	      0.00000000
      8.15000000	     -4.45080730	      8.57353648	      1.61450264	     -0.29108156	      0.81998569	      2.58468916	     31.11971304	     -8.23681309	      0.50506206	    -97.70740863	     -0.25561252	      0.00000000	      0.00000000	     16.00079432	     12.54455318	      3.29996592	    -38.02462165	     17.39624337	      0.00000000	      0.00000000	     -8.28021019	    -12.21502760	     -3.06815610	    -10.27298487	    -17.63036256	     23.41209810	    111.30263960	     89.01883517	      0.00000000	      0.00000000	      2.66645732	    -26.17960571	      9.32483847	    114.95377849	     95.62444393	      0.00000000	      0.00000000
      8.16000000	     -4.69253339	      7.43209059	      0.41306122	     -0.29179500	      0.82632401	      2.58731453	     33.82791301	     -5.97977489	      1.18371778	    -95.72240738	      0.18456647	      0.00000000	      0.00000000	     12.78070928	     10.96053831	      3.25539894	    -35.36240620	     16.47642668	      0.00000000	      0.00000000	     -7.57094207	    -11.10217369	     -3.28986086	    -12.55317494	    -18.42286784	     22.30715637	    112.05466221	     87.75163101	      0.00000000	      0.00000000	      3.73801532	    -25.75234215	      9.06162796	    116.25851916	     94.97066589	      0.00000000	      0.00000000
